# xmcd
#
# Track frame offsets:
# 183
# 17405
# 38303
# 54620
# 65980
# 79658
# 95918
# 107968
# 119463
# 130258
# 142243
# 153453
#
# Disc length: 2174 seconds
# Revision: 4
# Processed by: cddbd v1.4PL0 Copyright (c) Steve Scherf et al.
# Submitted via: MusicBox 0.2
#
DISCID=aa087c0c
DTITLE=John Lee Hooker - Blues Before Sunrise
DYEAR=1992
DGENRE=Blues
TTITLE0=Blues Before Sunrise
TTITLE1=That's My Story
TTITLE2=Mama, You Got A Daughter
TTITLE3=Boogie Chillen 2
TTITLE4=Time Is Marching
TTITLE5=Wednesday Evening Blues
TTITLE6=I'm A Stranger
TTITLE7=Solid Sender
TTITLE8=No Shoes
TTITLE9=Frisco
TTITLE10=Boom Boom
TTITLE11=Dusty Road
EXTD=YEAR: 1992 ID3G: 0
EXTT0=
EXTT1=
EXTT2=
EXTT3=
EXTT4=
EXTT5=
EXTT6=
EXTT7=
EXTT8=
EXTT9=
EXTT10=
EXTT11=
PLAYORDER=
